<?xml version="1.0" standalone="no"?>
<!DOCTYPE svg PUBLIC "-//W3C//DTD SVG 20010904//EN"
 "http://www.w3.org/TR/2001/REC-SVG-20010904/DTD/svg10.dtd">
<svg version="1.0" xmlns="http://www.w3.org/2000/svg"
 width="212.000000pt" height="238.000000pt" viewBox="0 0 212.000000 238.000000"
 preserveAspectRatio="xMidYMid meet">

<g transform="translate(0.000000,238.000000) scale(0.100000,-0.100000)"
fill="#000000" stroke="none">
<path d="M960 2369 c-85 -14 -188 -68 -262 -138 -114 -107 -167 -241 -168
-423 l0 -88 -107 0 c-60 0 -125 -5 -146 -11 -43 -12 -101 -59 -122 -100 -21
-40 -158 -1413 -146 -1457 24 -83 88 -137 175 -147 28 -3 443 -5 921 -3 968 3
898 -2 963 72 57 65 58 45 -18 803 -40 395 -76 708 -84 726 -17 43 -76 93
-123 106 -21 6 -86 11 -144 11 l-106 0 -6 118 c-9 179 -49 276 -157 385 -127
126 -287 176 -470 146z m182 -130 c75 -16 143 -53 198 -108 83 -83 120 -185
120 -328 l0 -83 -401 0 -402 0 5 113 c4 100 8 120 35 180 82 174 261 265 445
226z m-612 -728 c0 -60 -4 -80 -14 -84 -50 -19 -60 -145 -16 -192 53 -56 144
-54 193 5 47 56 44 131 -8 180 -22 21 -25 32 -25 97 l0 73 400 0 400 0 0 -73
c0 -65 -3 -76 -25 -97 -52 -48 -55 -124 -9 -180 50 -59 141 -62 194 -5 44 47
34 173 -16 192 -10 4 -14 24 -14 84 l0 79 78 0 c85 0 133 -17 164 -60 15 -21
30 -136 88 -654 69 -617 70 -629 53 -664 -10 -20 -31 -45 -46 -56 -28 -21 -36
-21 -867 -21 -831 0 -839 0 -867 21 -15 11 -36 36 -45 55 -17 34 -16 50 52
663 62 564 72 630 91 658 31 42 72 57 162 58 l77 0 0 -79z"/>
</g>
</svg>
